PathFileType	4	(X/Y/Z)	 staticP102.trc
DataRate	CameraRate	NumFrames	NumMarkers	Units	OrigDataRate	OrigDataStartFrame	OrigNumFrames
100	100	7	53	M	100	1	100
Frame#	Time	RM1D			RM5D			RM2B			LM1D			LM5D			LM2B			RCAL			LCAL			RLMAL			LLMAL			RMMAL			LMMAL			RSTL			LSTL			RFLE			RFME			LFME			LFLE			RHFIB			LHFIB			RTTUB			LTTUB			RSSH			LSSH			RTL			LTL			RTAP			RTAD			LTAP			LTAD			RTPP			RTPD			LTPP			LTPD			RPSIS			LPSIS			RASIS			LASIS			T10			T2			IJ			SA			RACR			LACR			RHLE			LHLE			RUSP			LUSP			RCB			LCB			IN			LHME			RHME			
		X1	Y1	Z1	X2	Y2	Z2	X3	Y3	Z3	X4	Y4	Z4	X5	Y5	Z5	X6	Y6	Z6	X7	Y7	Z7	X8	Y8	Z8	X9	Y9	Z9	X10	Y10	Z10	X11	Y11	Z11	X12	Y12	Z12	X13	Y13	Z13	X14	Y14	Z14	X15	Y15	Z15	X16	Y16	Z16	X17	Y17	Z17	X18	Y18	Z18	X19	Y19	Z19	X20	Y20	Z20	X21	Y21	Z21	X22	Y22	Z22	X23	Y23	Z23	X24	Y24	Z24	X25	Y25	Z25	X26	Y26	Z26	X27	Y27	Z27	X28	Y28	Z28	X29	Y29	Z29	X30	Y30	Z30	X31	Y31	Z31	X32	Y32	Z32	X33	Y33	Z33	X34	Y34	Z34	X35	Y35	Z35	X36	Y36	Z36	X37	Y37	Z37	X38	Y38	Z38	X39	Y39	Z39	X40	Y40	Z40	X41	Y41	Z41	X42	Y42	Z42	X43	Y43	Z43	X44	Y44	Z44	X45	Y45	Z45	X46	Y46	Z46	X47	Y47	Z47	X48	Y48	Z48	X49	Y49	Z49	X50	Y50	Z50	X51	Y51	Z51	X52	Y52	Z52	X53	Y53	Z53	
1	0.0100	-0.062761	0.046399	-0.188262	-0.105168	0.032587	-0.097813	-0.114525	0.065677	-0.152361	-0.063212	0.047115	-0.340955	-0.094730	0.028695	-0.433167	-0.104971	0.062970	-0.377971	-0.275678	0.050340	-0.165483	-0.274074	0.047378	-0.369471	-0.216437	0.093298	-0.127985	-0.215412	0.090200	-0.414055	-0.202711	0.106631	-0.219785	-0.198283	0.107472	-0.322902	-0.225260	0.047281	-0.204133	-0.222202	0.044572	-0.335574	-0.133008	0.539164	-0.130496	-0.149854	0.530072	-0.243661	-0.169810	0.529248	-0.322657	-0.158436	0.540731	-0.434374	-0.174298	0.469996	-0.111628	-0.187542	0.482233	-0.445741	-0.115543	0.455585	-0.175644	-0.134935	0.461790	-0.384764	-0.135824	0.367498	-0.190366	-0.161423	0.222800	-0.374007	-0.109884	0.733085	-0.086678	-0.140238	0.728667	-0.470325	-0.026278	0.764969	-0.171461	-0.048641	0.682082	-0.178781	-0.037993	0.765870	-0.398015	-0.063428	0.675585	-0.399456	-0.231903	0.737762	-0.161795	-0.229620	0.646504	-0.157682	-0.248350	0.739638	-0.362988	-0.248892	0.653981	-0.367236	-0.216892	1.109086	-0.219884	-0.220468	1.106239	-0.318987	-0.033800	1.065216	-0.161889	-0.040451	1.068722	-0.388058	-0.211036	1.291981	-0.270301	-0.211564	1.515044	-0.274197	-0.058856	1.495178	-0.282637	-0.038862	1.449557	-0.277830	-0.151169	1.509663	-0.065188	-0.151644	1.508508	-0.483998	-0.149013	1.175979	0.018704	-0.188621	1.165295	-0.538828	-0.111438	0.962558	0.167471	-0.148595	0.941948	-0.672138	-0.020802	1.673812	-0.193387	-0.010418	1.677259	-0.335379	-0.177494	1.594924	-0.278267	-0.115606	1.149903	-0.492553	-0.089248	1.152376	-0.037288	
2	0.0200	-0.062753	0.046396	-0.188270	-0.105180	0.032583	-0.097818	-0.114510	0.065661	-0.152359	-0.063211	0.047134	-0.340983	-0.094727	0.028693	-0.433160	-0.104960	0.062963	-0.377980	-0.275689	0.050355	-0.165506	-0.274071	0.047368	-0.369467	-0.216418	0.093314	-0.127972	-0.215403	0.090206	-0.414043	-0.202747	0.106633	-0.219811	-0.198296	0.107466	-0.322918	-0.225212	0.047275	-0.204150	-0.222223	0.044604	-0.335587	-0.132991	0.539151	-0.130521	-0.149836	0.530086	-0.243648	-0.167752	0.529953	-0.322735	-0.158441	0.540737	-0.434411	-0.174282	0.469979	-0.111649	-0.187555	0.482207	-0.445758	-0.115545	0.455574	-0.175661	-0.134946	0.461749	-0.384797	-0.135805	0.367511	-0.190379	-0.161413	0.222802	-0.374012	-0.109858	0.733077	-0.086690	-0.140221	0.728662	-0.470341	-0.026346	0.764971	-0.171483	-0.048621	0.682085	-0.178788	-0.037968	0.765868	-0.398054	-0.063412	0.675604	-0.399481	-0.231894	0.737762	-0.161797	-0.229623	0.646502	-0.157677	-0.248361	0.739645	-0.363000	-0.248887	0.653978	-0.367249	-0.216902	1.109086	-0.219910	-0.220463	1.106243	-0.319013	-0.033819	1.065213	-0.161912	-0.040495	1.068690	-0.388140	-0.211032	1.291996	-0.270330	-0.211521	1.515059	-0.274230	-0.058814	1.495215	-0.282660	-0.038878	1.449579	-0.277873	-0.151102	1.509659	-0.065199	-0.151596	1.508518	-0.484042	-0.148993	1.175998	0.018716	-0.188594	1.165297	-0.538834	-0.111417	0.962625	0.167536	-0.148587	0.941948	-0.672130	-0.020769	1.673835	-0.193390	-0.010339	1.677279	-0.335393	-0.177462	1.594948	-0.278307	-0.115618	1.149935	-0.492591	-0.089244	1.152400	-0.037284	
3	0.0300	-0.062737	0.046410	-0.188261	-0.105173	0.032575	-0.097842	-0.114502	0.065659	-0.152371	-0.063193	0.047127	-0.340988	-0.094713	0.028691	-0.433162	-0.104970	0.062958	-0.377983	-0.275661	0.050356	-0.165491	-0.274058	0.047378	-0.369432	-0.216404	0.093315	-0.127966	-0.215365	0.090218	-0.414078	-0.202682	0.106630	-0.219791	-0.198286	0.107462	-0.322922	-0.225159	0.047218	-0.204140	-0.222209	0.044600	-0.335589	-0.132973	0.539139	-0.130543	-0.149820	0.530052	-0.243659	-0.169775	0.529254	-0.322714	-0.158447	0.540750	-0.434418	-0.174294	0.469986	-0.111659	-0.187531	0.482227	-0.445753	-0.115525	0.455566	-0.175662	-0.134922	0.461795	-0.384830	-0.135820	0.367512	-0.190388	-0.161432	0.222809	-0.374040	-0.109869	0.733097	-0.086680	-0.140239	0.728656	-0.470386	-0.026353	0.764962	-0.171470	-0.048633	0.682096	-0.178786	-0.038025	0.765839	-0.398073	-0.063429	0.675578	-0.399519	-0.231896	0.737771	-0.161786	-0.229599	0.646508	-0.157672	-0.248363	0.739650	-0.363024	-0.248909	0.653992	-0.367264	-0.216886	1.109090	-0.219926	-0.220464	1.106252	-0.319025	-0.033790	1.065199	-0.161932	-0.040446	1.068726	-0.388120	-0.211005	1.292034	-0.270379	-0.211475	1.515092	-0.274270	-0.058762	1.495178	-0.282694	-0.038820	1.449533	-0.277883	-0.151057	1.509687	-0.065208	-0.151520	1.508534	-0.484070	-0.148991	1.176035	0.018719	-0.188569	1.165320	-0.538865	-0.111375	0.962672	0.167606	-0.148590	0.941949	-0.672143	-0.020701	1.673795	-0.193417	-0.010290	1.677278	-0.335399	-0.177396	1.594964	-0.278334	-0.115572	1.149916	-0.492611	-0.089239	1.152367	-0.037267	
4	0.0400	-0.062917	0.046313	-0.188323	-0.105194	0.032587	-0.097814	-0.114875	0.065496	-0.152481	-0.063184	0.047133	-0.340977	-0.094702	0.028682	-0.433161	-0.104951	0.062965	-0.377973	-0.275665	0.050356	-0.165495	-0.274033	0.047361	-0.369504	-0.215939	0.093661	-0.127681	-0.215521	0.090264	-0.414500	-0.203091	0.106303	-0.219313	-0.199615	0.106546	-0.323053	-0.225232	0.047300	-0.204142	-0.222267	0.044647	-0.335517	-0.132963	0.539143	-0.130557	-0.149834	0.530091	-0.243673	-0.169819	0.529265	-0.322705	-0.158473	0.540762	-0.434440	-0.173729	0.470054	-0.111502	-0.187447	0.482254	-0.445813	-0.115562	0.455575	-0.175653	-0.134895	0.461784	-0.384837	-0.135825	0.367507	-0.190381	-0.161473	0.222792	-0.374045	-0.109928	0.732969	-0.086644	-0.140703	0.728222	-0.469946	-0.026370	0.764983	-0.171527	-0.048677	0.682088	-0.178813	-0.037966	0.765943	-0.398139	-0.063503	0.675566	-0.399560	-0.231854	0.737795	-0.161751	-0.229575	0.646516	-0.157668	-0.248328	0.739681	-0.362971	-0.248909	0.653995	-0.367295	-0.217217	1.109189	-0.220223	-0.220236	1.106317	-0.318772	-0.033795	1.065208	-0.161952	-0.040462	1.068736	-0.388146	-0.210994	1.292039	-0.270394	-0.211384	1.515057	-0.274169	-0.058767	1.495258	-0.282809	-0.038825	1.449527	-0.277941	-0.151027	1.509682	-0.065252	-0.151471	1.508541	-0.484109	-0.148971	1.176052	0.018763	-0.187873	1.165089	-0.539346	-0.111343	0.962724	0.167662	-0.148606	0.941939	-0.672161	-0.020726	1.673800	-0.193387	-0.010226	1.677264	-0.335417	-0.177354	1.594980	-0.278374	-0.115399	1.150000	-0.492735	-0.091069	1.152603	-0.036930	
5	0.0500	-0.062686	0.046383	-0.188324	-0.105154	0.032557	-0.097831	-0.114092	0.065825	-0.152437	-0.063154	0.047115	-0.341038	-0.094650	0.028661	-0.433226	-0.104908	0.062935	-0.377935	-0.275811	0.050600	-0.165814	-0.274118	0.047483	-0.369602	-0.216061	0.093665	-0.127860	-0.215661	0.090262	-0.414111	-0.203259	0.106252	-0.219099	-0.199600	0.106493	-0.323221	-0.225182	0.047253	-0.204367	-0.222381	0.044668	-0.335543	-0.133352	0.539155	-0.130762	-0.150018	0.530152	-0.243484	-0.170122	0.529333	-0.322969	-0.158391	0.540702	-0.434321	-0.173738	0.470007	-0.111700	-0.187466	0.482201	-0.445789	-0.115503	0.455590	-0.175654	-0.135134	0.461664	-0.384348	-0.135441	0.367525	-0.190364	-0.161390	0.222803	-0.374139	-0.109902	0.732963	-0.086833	-0.140378	0.728107	-0.470023	-0.026343	0.764984	-0.171519	-0.048655	0.682109	-0.178830	-0.037986	0.765870	-0.398212	-0.063447	0.675542	-0.399624	-0.231851	0.737837	-0.161775	-0.229609	0.646535	-0.157720	-0.248290	0.739820	-0.362996	-0.248886	0.654063	-0.367361	-0.217261	1.109143	-0.220228	-0.220161	1.106379	-0.318798	-0.033276	1.065357	-0.161965	-0.040073	1.068760	-0.388344	-0.210799	1.292002	-0.270366	-0.211045	1.514739	-0.274090	-0.058722	1.495260	-0.282789	-0.038684	1.449540	-0.277875	-0.150801	1.509430	-0.065186	-0.151386	1.508663	-0.483993	-0.149039	1.176045	0.018799	-0.187492	1.165163	-0.539508	-0.111303	0.962727	0.167576	-0.148321	0.942005	-0.672221	-0.020481	1.673642	-0.193481	-0.009827	1.677221	-0.335152	-0.176916	1.594615	-0.278384	-0.115196	1.150041	-0.492711	-0.090586	1.152530	-0.036852	
6	0.0600	-0.062721	0.046383	-0.188349	-0.105182	0.032556	-0.097845	-0.114028	0.065835	-0.152443	-0.063136	0.047118	-0.341064	-0.094671	0.028669	-0.433249	-0.104901	0.062923	-0.377924	-0.275790	0.050601	-0.165797	-0.274110	0.047464	-0.369593	-0.216063	0.093661	-0.127871	-0.215672	0.090234	-0.414103	-0.203216	0.106256	-0.219103	-0.199605	0.106518	-0.323240	-0.225202	0.047238	-0.204377	-0.222202	0.044957	-0.334457	-0.132831	0.539283	-0.130663	-0.150092	0.530228	-0.243471	-0.169545	0.529207	-0.322772	-0.158386	0.540717	-0.434306	-0.173778	0.470046	-0.111725	-0.187446	0.482205	-0.445803	-0.115488	0.455620	-0.175651	-0.135451	0.461990	-0.384698	-0.135428	0.367572	-0.190371	-0.161372	0.222806	-0.374136	-0.109892	0.732986	-0.086849	-0.140336	0.728081	-0.470046	-0.026322	0.764970	-0.171533	-0.048650	0.682129	-0.178861	-0.037896	0.765895	-0.398235	-0.063458	0.675553	-0.399661	-0.231860	0.737734	-0.161747	-0.229605	0.646501	-0.157718	-0.248408	0.739651	-0.362994	-0.248992	0.653938	-0.367336	-0.217274	1.109160	-0.220243	-0.220228	1.106245	-0.318816	-0.033951	1.065026	-0.161991	-0.039975	1.068810	-0.388341	-0.211164	1.292049	-0.270508	-0.211379	1.515146	-0.274318	-0.058656	1.495300	-0.282821	-0.038613	1.449558	-0.277884	-0.150901	1.509714	-0.065329	-0.151346	1.508305	-0.483972	-0.149069	1.176063	0.018815	-0.188025	1.165043	-0.539446	-0.111376	0.962759	0.167598	-0.148689	0.941821	-0.672298	-0.020652	1.673990	-0.193521	-0.009687	1.677242	-0.335088	-0.177363	1.595113	-0.278562	-0.115590	1.149856	-0.492713	-0.090555	1.152502	-0.036845	
7	0.0700	-0.062910	0.046297	-0.188370	-0.105161	0.032560	-0.097849	-0.114800	0.065512	-0.152534	-0.063155	0.047104	-0.341065	-0.094662	0.028664	-0.433249	-0.104930	0.062948	-0.377926	-0.275828	0.050607	-0.165817	-0.274179	0.047519	-0.369594	-0.216084	0.093659	-0.127879	-0.215671	0.090218	-0.414113	-0.203283	0.106282	-0.219100	-0.199635	0.106505	-0.323269	-0.225186	0.047220	-0.204370	-0.222255	0.044947	-0.334521	-0.132825	0.539302	-0.130654	-0.150032	0.530218	-0.243456	-0.169524	0.529203	-0.322789	-0.158415	0.540719	-0.434302	-0.173812	0.470033	-0.111735	-0.187483	0.482209	-0.445797	-0.115501	0.455630	-0.175658	-0.135467	0.462039	-0.384718	-0.135414	0.367570	-0.190403	-0.161412	0.222826	-0.374147	-0.109873	0.732975	-0.086881	-0.140380	0.728075	-0.470107	-0.026287	0.764971	-0.171556	-0.048636	0.682119	-0.178883	-0.037952	0.765897	-0.398234	-0.063473	0.675563	-0.399669	-0.231858	0.737718	-0.161761	-0.229611	0.646509	-0.157746	-0.248465	0.739650	-0.362975	-0.249021	0.653931	-0.367336	-0.217268	1.109159	-0.220259	-0.220218	1.106240	-0.318833	-0.034029	1.065003	-0.162015	-0.039961	1.068800	-0.388383	-0.211211	1.292078	-0.270532	-0.211402	1.515194	-0.274369	-0.058622	1.495323	-0.282816	-0.038648	1.449526	-0.277943	-0.150843	1.509721	-0.065340	-0.151312	1.508298	-0.484032	-0.149068	1.176073	0.018839	-0.188111	1.165046	-0.539451	-0.111368	0.962777	0.167628	-0.148762	0.941805	-0.672328	-0.020679	1.674003	-0.193509	-0.009633	1.677257	-0.335099	-0.177375	1.595162	-0.278606	-0.115653	1.149859	-0.492774	-0.090565	1.152501	-0.036846	
